<?xml version="1.0" standalone="no"?>
<!DOCTYPE svg PUBLIC "-//W3C//DTD SVG 20010904//EN"
 "http://www.w3.org/TR/2001/REC-SVG-20010904/DTD/svg10.dtd">
<svg version="1.0" xmlns="http://www.w3.org/2000/svg"
 width="1024.000000pt" height="1024.000000pt" viewBox="0 0 1024.000000 1024.000000"
 preserveAspectRatio="xMidYMid meet">

<g transform="translate(0.000000,1024.000000) scale(0.100000,-0.100000)"
fill="#000000" stroke="none">
<path d="M4835 8309 c-420 -37 -859 -169 -1230 -370 -285 -155 -509 -322 -745
-559 -515 -515 -819 -1133 -917 -1868 -24 -177 -24 -607 0 -784 79 -593 294
-1110 657 -1580 118 -154 389 -425 540 -542 562 -435 1188 -662 1885 -683 768
-24 1494 220 2100 703 141 112 376 348 489 489 374 468 599 999 682 1610 25
183 25 608 0 790 -72 522 -233 956 -511 1375 -231 348 -554 670 -903 901 -599
397 -1327 580 -2047 518z m643 -653 c561 -84 1057 -332 1450 -724 404 -405
650 -905 734 -1497 17 -118 17 -512 0 -630 -85 -595 -331 -1095 -740 -1502
-399 -397 -903 -644 -1482 -725 -125 -17 -515 -17 -640 0 -765 107 -1407 510
-1826 1147 -554 842 -550 1964 11 2805 154 231 321 416 523 577 414 333 847
507 1407 567 84 9 464 -3 563 -18z"/>
</g>
</svg>
